
  <svg width="441.75" height="104.25" viewBox="0 0 2356 556" fill="none" xmlns="http://www.w3.org/2000/svg" xmlns:xlink="http://www.w3.org/1999/xlink" version="1.1">
    
        <g transform="translate(0, 0)">
          <svg xmlns="http://www.w3.org/2000/svg" width="256" height="256" fill="none" viewBox="0 0 256 256"><rect width="256" height="256" fill="#E14E1D" rx="60"/><path fill="#fff" d="M48 38L56.6098 134.593H167.32L163.605 176.023L127.959 185.661L92.38 176.037L90.0012 149.435H57.9389L62.5236 200.716L127.951 218.888L193.461 200.716L202.244 102.655H85.8241L82.901 69.9448H205.041H205.139L208 38H48Z"/><path fill="#EBEBEB" d="M128 38H48L56.6098 134.593H128V102.655H85.8241L82.901 69.9448H128V38Z"/><path fill="#EBEBEB" d="M128 185.647L127.959 185.661L92.38 176.037L90.0012 149.435H57.9388L62.5236 200.716L127.951 218.888L128 218.874V185.647Z"/></svg>
        </g>
         
        <g transform="translate(300, 0)">
          <svg xmlns="http://www.w3.org/2000/svg" width="256" height="256" fill="none" viewBox="0 0 256 256"><rect width="256" height="256" fill="#242938" rx="60"/><path fill="#fff" d="M49.158 100.246H77.566C85.904 100.316 91.946 102.72 95.692 107.454C99.438 112.188 100.674 118.654 99.402 126.852C98.908 130.598 97.812 134.272 96.116 137.876C94.49 141.48 92.23 144.73 89.332 147.628C85.798 151.302 82.018 153.634 77.99 154.624C73.962 155.614 69.792 156.108 65.482 156.108H52.762L48.734 176.248H34L49.158 100.246V100.246ZM61.56 112.33L55.2 144.13C55.624 144.2 56.048 144.236 56.472 144.236C56.966 144.236 57.462 144.236 57.956 144.236C64.74 144.306 70.394 143.636 74.916 142.222C79.438 140.738 82.478 135.58 84.032 126.746C85.304 119.326 84.032 115.05 80.216 113.92C76.47 112.79 71.772 112.26 66.118 112.33C65.27 112.4 64.458 112.436 63.68 112.436C62.974 112.436 62.232 112.436 61.454 112.436L61.56 112.33"/><path fill="#fff" d="M116.186 80H130.814L126.68 100.246H139.824C147.032 100.388 152.402 101.872 155.936 104.698C159.54 107.524 160.6 112.896 159.116 120.81L152.014 156.108H137.174L143.958 122.4C144.664 118.866 144.452 116.358 143.322 114.874C142.192 113.39 139.754 112.648 136.008 112.648L124.242 112.542L115.55 156.108H100.922L116.186 80Z"/><path fill="#fff" d="M174.824 100.246H203.232C211.57 100.316 217.612 102.72 221.358 107.454C225.104 112.188 226.34 118.654 225.068 126.852C224.574 130.598 223.478 134.272 221.782 137.876C220.156 141.48 217.896 144.73 214.998 147.628C211.464 151.302 207.684 153.634 203.656 154.624C199.628 155.614 195.458 156.108 191.148 156.108H178.428L174.4 176.248H159.666L174.824 100.246V100.246ZM187.226 112.33L180.866 144.13C181.29 144.2 181.714 144.236 182.138 144.236C182.632 144.236 183.128 144.236 183.622 144.236C190.406 144.306 196.06 143.636 200.582 142.222C205.104 140.738 208.144 135.58 209.698 126.746C210.97 119.326 209.698 115.05 205.882 113.92C202.136 112.79 197.438 112.26 191.784 112.33C190.936 112.4 190.124 112.436 189.346 112.436C188.64 112.436 187.898 112.436 187.12 112.436L187.226 112.33"/></svg>
        </g>
         
        <g transform="translate(600, 0)">
          <svg xmlns="http://www.w3.org/2000/svg" width="256" height="256" fill="none" viewBox="0 0 256 256"><rect width="256" height="256" fill="#242938" rx="60"/><path stroke="#fff" stroke-width="10" d="M217 69H39C33.4772 69 29 73.4772 29 79V177C29 182.523 33.4772 187 39 187H217C222.523 187 227 182.523 227 177V79C227 73.4772 222.523 69 217 69Z"/><path fill="#fff" d="M54 162V94H74L94 119L114 94H134V162H114V123L94 148L74 123V162H54ZM179 162L149 129H169V94H189V129H209L179 162Z"/></svg>
        </g>
         
        <g transform="translate(900, 0)">
          <svg xmlns="http://www.w3.org/2000/svg" width="256" height="256" fill="none" viewBox="0 0 256 256"><rect width="256" height="256" fill="#5865F2" rx="60"/><g clip-path="url(#clip0_158_82)"><path fill="#fff" d="M197.308 64.7966C184.561 58.9476 170.892 54.6383 156.599 52.1701C156.339 52.1225 156.079 52.2415 155.945 52.4796C154.187 55.6064 152.239 59.6856 150.876 62.8918C135.503 60.5904 120.21 60.5904 105.153 62.8918C103.789 59.6143 101.771 55.6064 100.005 52.4796C99.8707 52.2495 99.6107 52.1305 99.3504 52.1701C85.0659 54.6304 71.3963 58.9397 58.6411 64.7966C58.5307 64.8442 58.4361 64.9236 58.3732 65.0267C32.4449 103.763 25.3421 141.547 28.8265 178.863C28.8423 179.046 28.9447 179.22 29.0867 179.331C46.1934 191.894 62.7642 199.521 79.0273 204.576C79.2876 204.655 79.5634 204.56 79.729 204.346C83.5761 199.092 87.0054 193.553 89.9456 187.728C90.1192 187.386 89.9535 186.982 89.5989 186.847C84.1594 184.783 78.98 182.268 73.9977 179.411C73.6037 179.181 73.5721 178.617 73.9347 178.347C74.9831 177.561 76.0318 176.744 77.033 175.919C77.2141 175.768 77.4665 175.736 77.6794 175.831C110.411 190.775 145.846 190.775 178.191 175.831C178.404 175.728 178.657 175.76 178.846 175.911C179.847 176.736 180.895 177.561 181.952 178.347C182.314 178.617 182.291 179.181 181.897 179.411C176.914 182.323 171.735 184.783 166.288 186.839C165.933 186.974 165.775 187.386 165.949 187.728C168.952 193.545 172.381 199.084 176.157 204.338C176.315 204.56 176.599 204.655 176.859 204.576C193.201 199.521 209.772 191.894 226.879 179.331C227.028 179.22 227.123 179.053 227.139 178.871C231.309 135.73 220.154 98.2554 197.568 65.0346C197.513 64.9236 197.419 64.8442 197.308 64.7966ZM94.8335 156.142C84.9792 156.142 76.8594 147.095 76.8594 135.984C76.8594 124.873 84.8217 115.826 94.8335 115.826C104.924 115.826 112.965 124.953 112.807 135.984C112.807 147.095 104.845 156.142 94.8335 156.142ZM161.29 156.142C151.435 156.142 143.316 147.095 143.316 135.984C143.316 124.873 151.278 115.826 161.29 115.826C171.38 115.826 179.421 124.953 179.264 135.984C179.264 147.095 171.38 156.142 161.29 156.142Z"/></g><defs><clipPath id="clip0_158_82"><rect width="200" height="154.93" fill="#fff" transform="translate(28 51)"/></clipPath></defs></svg>
        </g>
         
        <g transform="translate(1200, 0)">
          <svg width="256" height="256" viewBox="0 0 256 256" fill="none" xmlns="http://www.w3.org/2000/svg">
<rect width="256" height="256" rx="60" fill="#242938"/>
<path d="M128.001 30C72.7791 30 28 74.7708 28 130.001C28 174.184 56.6533 211.668 96.3867 224.891C101.384 225.817 103.219 222.722 103.219 220.081C103.219 217.696 103.126 209.819 103.083 201.463C75.2631 207.512 69.3927 189.664 69.3927 189.664C64.8437 178.105 58.2894 175.032 58.2894 175.032C49.2163 168.825 58.9733 168.953 58.9733 168.953C69.0151 169.658 74.3026 179.258 74.3026 179.258C83.2217 194.546 97.6965 190.126 103.403 187.571C104.301 181.107 106.892 176.696 109.752 174.199C87.5405 171.67 64.1913 163.095 64.1913 124.778C64.1913 113.86 68.0977 104.939 74.4947 97.9362C73.4564 95.4175 70.0335 85.2465 75.4635 71.4722C75.4635 71.4722 83.8609 68.7845 102.971 81.7226C110.948 79.5069 119.502 78.3958 128.001 78.3577C136.499 78.3958 145.061 79.5069 153.052 81.7226C172.139 68.7845 180.525 71.4722 180.525 71.4722C185.968 85.2465 182.544 95.4175 181.505 97.9362C187.917 104.939 191.797 113.86 191.797 124.778C191.797 163.187 168.403 171.644 146.135 174.119C149.722 177.223 152.918 183.308 152.918 192.638C152.918 206.018 152.802 216.787 152.802 220.081C152.802 222.742 154.602 225.86 159.671 224.878C199.383 211.64 228 174.169 228 130.001C228 74.7708 183.227 30 128.001 30ZM65.4536 172.453C65.2333 172.95 64.4517 173.099 63.7396 172.758C63.0143 172.432 62.6069 171.754 62.8421 171.256C63.0574 170.744 63.8406 170.602 64.5643 170.945C65.2913 171.271 65.7053 171.955 65.4536 172.453ZM70.3725 176.842C69.8956 177.285 68.9633 177.079 68.3307 176.38C67.6766 175.683 67.554 174.751 68.0376 174.302C68.5294 173.86 69.4336 174.067 70.0893 174.764C70.7434 175.47 70.8709 176.395 70.3725 176.842ZM73.7471 182.458C73.1344 182.884 72.1325 182.485 71.5132 181.595C70.9004 180.706 70.9004 179.64 71.5264 179.212C72.1474 178.785 73.1344 179.169 73.762 180.052C74.373 180.956 74.373 182.023 73.7471 182.458ZM79.4542 188.962C78.9061 189.566 77.7386 189.404 76.8841 188.579C76.0098 187.773 75.7663 186.629 76.3161 186.024C76.8709 185.418 78.045 185.589 78.9061 186.407C79.7738 187.211 80.0387 188.364 79.4542 188.962ZM86.8301 191.157C86.5883 191.941 85.4639 192.297 84.3312 191.964C83.2002 191.621 82.46 190.704 82.6885 189.912C82.9237 189.124 84.053 188.753 85.194 189.109C86.3234 189.45 87.0652 190.361 86.8301 191.157ZM95.2242 192.089C95.2523 192.913 94.2919 193.597 93.1029 193.612C91.9073 193.639 90.9402 192.971 90.9269 192.16C90.9269 191.327 91.8659 190.65 93.0615 190.63C94.2505 190.607 95.2242 191.269 95.2242 192.089ZM103.47 191.773C103.613 192.577 102.787 193.404 101.606 193.624C100.445 193.836 99.3702 193.339 99.2229 192.541C99.0788 191.716 99.92 190.89 101.079 190.676C102.262 190.471 103.32 190.955 103.47 191.773Z" fill="white"/>
</svg>

        </g>
         
        <g transform="translate(1500, 0)">
          <svg width="256" height="256" viewBox="0 0 256 256" fill="none" xmlns="http://www.w3.org/2000/svg">
<rect width="256" height="256" rx="60" fill="url(#paint0_radial_206_683)"/>
<rect width="256" height="256" rx="60" fill="url(#paint1_radial_206_683)"/>
<path d="M128.009 28C100.851 28 97.4424 28.1188 86.7756 28.6042C76.1297 29.0917 68.8629 30.7771 62.5045 33.2501C55.9274 35.8042 50.3481 39.221 44.7898 44.7814C39.2272 50.3398 35.8105 55.919 33.248 62.4941C30.7688 68.8546 29.0813 76.1234 28.6021 86.7652C28.125 97.432 28 100.842 28 128.001C28 155.16 28.1208 158.558 28.6042 169.224C29.0938 179.87 30.7792 187.137 33.2501 193.495C35.8063 200.073 39.223 205.652 44.7835 211.21C50.3398 216.773 55.919 220.198 62.492 222.752C68.8546 225.225 76.1234 226.91 86.7673 227.398C97.4341 227.883 100.84 228.002 127.997 228.002C155.158 228.002 158.556 227.883 169.222 227.398C179.868 226.91 187.143 225.225 193.506 222.752C200.081 220.198 205.652 216.773 211.208 211.21C216.771 205.652 220.187 200.073 222.75 193.498C225.208 187.137 226.896 179.868 227.396 169.226C227.875 158.56 228 155.16 228 128.001C228 100.842 227.875 97.4341 227.396 86.7673C226.896 76.1213 225.208 68.8546 222.75 62.4962C220.187 55.919 216.771 50.3398 211.208 44.7814C205.646 39.2189 200.083 35.8022 193.5 33.2501C187.125 30.7771 179.854 29.0917 169.208 28.6042C158.541 28.1188 155.145 28 127.978 28H128.009ZM119.038 46.021C121.701 46.0169 124.672 46.021 128.009 46.021C154.71 46.021 157.874 46.1169 168.418 46.596C178.168 47.0419 183.46 48.671 186.985 50.0398C191.652 51.8523 194.979 54.019 198.477 57.5191C201.977 61.0191 204.143 64.3525 205.96 69.0192C207.329 72.54 208.96 77.8318 209.404 87.5819C209.883 98.1236 209.987 101.29 209.987 127.978C209.987 154.666 209.883 157.833 209.404 168.374C208.958 178.124 207.329 183.416 205.96 186.937C204.148 191.604 201.977 194.927 198.477 198.425C194.977 201.925 191.654 204.091 186.985 205.904C183.464 207.279 178.168 208.904 168.418 209.35C157.876 209.829 154.71 209.933 128.009 209.933C101.307 209.933 98.1424 209.829 87.6006 209.35C77.8505 208.9 72.5588 207.271 69.0317 205.902C64.365 204.089 61.0316 201.923 57.5316 198.423C54.0315 194.923 51.8648 191.598 50.0481 186.929C48.6794 183.408 47.0481 178.116 46.6044 168.366C46.1252 157.824 46.0294 154.658 46.0294 127.953C46.0294 101.249 46.1252 98.0986 46.6044 87.5569C47.0502 77.8068 48.6794 72.515 50.0481 68.99C51.8607 64.3233 54.0315 60.9899 57.5316 57.4899C61.0316 53.9899 64.365 51.8232 69.0317 50.0065C72.5567 48.6315 77.8505 47.0064 87.6006 46.5585C96.8257 46.1419 100.401 46.0169 119.038 45.996V46.021ZM181.389 62.6254C174.764 62.6254 169.389 67.9942 169.389 74.6213C169.389 81.2464 174.764 86.6214 181.389 86.6214C188.014 86.6214 193.389 81.2464 193.389 74.6213C193.389 67.9962 188.014 62.6212 181.389 62.6212V62.6254ZM128.009 76.6463C99.6487 76.6463 76.6547 99.6403 76.6547 128.001C76.6547 156.362 99.6487 179.345 128.009 179.345C156.37 179.345 179.356 156.362 179.356 128.001C179.356 99.6403 156.368 76.6463 128.007 76.6463H128.009ZM128.009 94.6674C146.418 94.6674 161.343 109.59 161.343 128.001C161.343 146.41 146.418 161.335 128.009 161.335C109.599 161.335 94.6757 146.41 94.6757 128.001C94.6757 109.59 109.599 94.6674 128.009 94.6674V94.6674Z" fill="white"/>
<defs>
<radialGradient id="paint0_radial_206_683" cx="0" cy="0" r="1" gradientUnits="userSpaceOnUse" gradientTransform="translate(68.0003 275.717) rotate(-90) scale(253.715 235.975)">
<stop stop-color="#FFDD55"/>
<stop offset="0.1" stop-color="#FFDD55"/>
<stop offset="0.5" stop-color="#FF543E"/>
<stop offset="1" stop-color="#C837AB"/>
</radialGradient>
<radialGradient id="paint1_radial_206_683" cx="0" cy="0" r="1" gradientUnits="userSpaceOnUse" gradientTransform="translate(-42.8814 18.4418) rotate(78.6806) scale(113.412 467.488)">
<stop stop-color="#3771C8"/>
<stop offset="0.128" stop-color="#3771C8"/>
<stop offset="1" stop-color="#6600FF" stop-opacity="0"/>
</radialGradient>
</defs>
</svg>

        </g>
         
        <g transform="translate(1800, 0)">
          <svg width="256" height="256" viewBox="0 0 256 256" fill="none" xmlns="http://www.w3.org/2000/svg">
<rect width="256" height="256" rx="60" fill="#242938"/>
<path d="M172.787 97.4052L172.714 97.3739C172.673 97.3583 172.631 97.3426 172.594 97.3061C172.534 97.2418 172.49 97.1647 172.465 97.0806C172.44 96.9965 172.434 96.9077 172.448 96.821L176.48 72.1699L195.389 91.0834L175.724 99.4499C175.669 99.4719 175.611 99.4826 175.552 99.4812H175.474C175.448 99.4656 175.421 99.4447 175.369 99.3925C174.637 98.5777 173.762 97.9041 172.787 97.4052V97.4052ZM200.213 95.903L220.431 116.12C224.63 120.325 226.732 122.421 227.499 124.852C227.613 125.212 227.707 125.572 227.78 125.942L179.464 105.48C179.438 105.469 179.412 105.459 179.386 105.448C179.193 105.37 178.968 105.281 178.968 105.083C178.968 104.885 179.198 104.791 179.391 104.713L179.453 104.687L200.213 95.903V95.903ZM226.956 132.431C225.913 134.392 223.879 136.427 220.436 139.874L197.642 162.663L168.161 156.524L168.004 156.493C167.743 156.451 167.467 156.404 167.467 156.169C167.355 154.953 166.994 153.773 166.406 152.702C165.818 151.632 165.016 150.694 164.05 149.947C163.93 149.827 163.962 149.639 163.998 149.467C163.998 149.441 163.998 149.415 164.009 149.394L169.553 115.354L169.574 115.239C169.606 114.978 169.652 114.676 169.887 114.676C171.075 114.528 172.222 114.145 173.261 113.549C174.3 112.954 175.21 112.158 175.938 111.207C175.985 111.155 176.016 111.097 176.079 111.066C176.246 110.988 176.444 111.066 176.616 111.139L226.951 132.431H226.956ZM192.4 167.905L154.917 205.388L161.333 165.955L161.343 165.902C161.349 165.85 161.359 165.798 161.375 165.751C161.427 165.626 161.562 165.574 161.693 165.522L161.755 165.496C163.16 164.896 164.403 163.972 165.381 162.799C165.506 162.653 165.657 162.512 165.85 162.486C165.9 162.478 165.951 162.478 166.001 162.486L192.394 167.911L192.4 167.905ZM146.983 213.322L142.758 217.547L96.0487 150.04C96.0318 150.016 96.0144 149.991 95.9965 149.967C95.9235 149.868 95.8453 149.769 95.8609 149.654C95.8661 149.571 95.9183 149.498 95.9757 149.435L96.0278 149.368C96.1687 149.159 96.2886 148.95 96.419 148.726L96.5234 148.543L96.539 148.528C96.612 148.403 96.6798 148.283 96.805 148.215C96.9146 148.163 97.0658 148.184 97.1858 148.21L148.934 158.882C149.079 158.904 149.215 158.963 149.331 159.054C149.399 159.122 149.414 159.195 149.43 159.278C149.791 160.644 150.463 161.908 151.393 162.971C152.323 164.034 153.486 164.868 154.792 165.407C154.938 165.48 154.875 165.642 154.808 165.814C154.774 165.889 154.748 165.968 154.729 166.049C154.077 170.013 148.486 204.115 146.983 213.322ZM138.158 222.142C135.044 225.225 133.208 226.857 131.132 227.515C129.085 228.162 126.888 228.162 124.841 227.515C122.411 226.743 120.309 224.646 116.11 220.442L69.2016 173.534L81.4542 154.531C81.5115 154.438 81.5689 154.354 81.6628 154.286C81.7932 154.192 81.981 154.234 82.1375 154.286C84.9498 155.135 87.9692 154.982 90.6814 153.853C90.8222 153.801 90.963 153.765 91.0726 153.864C91.1273 153.914 91.1763 153.97 91.2186 154.031L138.158 222.147V222.142ZM64.6793 169.011L53.9186 158.251L75.1688 149.185C75.2231 149.161 75.2817 149.149 75.3409 149.149C75.5183 149.149 75.6226 149.326 75.7165 149.488C75.9301 149.816 76.1563 150.136 76.3946 150.447L76.4624 150.531C76.525 150.619 76.4833 150.708 76.4207 150.792L64.6845 169.011H64.6793ZM49.1563 153.488L35.5424 139.874C33.2265 137.558 31.5469 135.879 30.3785 134.434L71.7732 143.02C71.8252 143.029 71.8773 143.038 71.9296 143.046C72.1852 143.087 72.4669 143.134 72.4669 143.374C72.4669 143.635 72.1591 143.755 71.8983 143.854L71.7784 143.906L49.1563 153.488ZM28 127.434C28.0472 126.557 28.2049 125.69 28.4694 124.852C29.2414 122.421 31.3383 120.325 35.5424 116.12L52.9641 98.6988C60.9855 110.34 69.0287 121.967 77.0935 133.579C77.2344 133.766 77.3908 133.975 77.2292 134.131C76.4676 134.971 75.7061 135.889 75.1688 136.886C75.1105 137.014 75.0208 137.125 74.908 137.209C74.8402 137.251 74.7672 137.235 74.6889 137.219H74.6785L28 127.429V127.434ZM57.6272 94.0356L81.0525 70.6103C83.2537 71.5753 91.2656 74.9605 98.4324 77.9858C103.857 80.2809 108.802 82.3673 110.356 83.0454C110.513 83.108 110.654 83.1706 110.721 83.3271C110.763 83.421 110.742 83.5409 110.721 83.64C110.351 85.331 110.406 87.0875 110.882 88.7518C111.358 90.4162 112.24 91.9361 113.449 93.175C113.606 93.3315 113.449 93.5558 113.314 93.7488L113.241 93.8583L89.4556 130.699C89.393 130.804 89.3356 130.892 89.2313 130.96C89.1061 131.038 88.9288 131.002 88.7827 130.965C87.8576 130.723 86.9066 130.593 85.9504 130.579C85.095 130.579 84.1665 130.736 83.2276 130.908H83.2224C83.1181 130.924 83.0242 130.944 82.9407 130.882C82.8486 130.807 82.7693 130.717 82.706 130.616L57.6272 94.0356V94.0356ZM85.7835 65.8794L116.11 35.5532C120.309 31.3543 122.411 29.2522 124.841 28.4854C126.888 27.8382 129.085 27.8382 131.132 28.4854C133.563 29.2522 135.665 31.3543 139.864 35.5532L146.436 42.1254L124.867 75.5291C124.814 75.6263 124.741 75.7115 124.654 75.7794C124.523 75.8681 124.341 75.8316 124.184 75.7794C122.484 75.2634 120.683 75.1694 118.938 75.5057C117.193 75.842 115.556 76.5983 114.169 77.7094C114.028 77.8554 113.82 77.772 113.642 77.6937C110.826 76.468 88.9183 67.2095 85.7835 65.8794V65.8794ZM151.016 46.7051L170.93 66.62L166.132 96.3411V96.4194C166.127 96.4871 166.113 96.5539 166.09 96.6176C166.038 96.7219 165.933 96.7428 165.829 96.7741C164.803 97.0849 163.837 97.5662 162.971 98.1981C162.933 98.2246 162.899 98.2543 162.866 98.2867C162.809 98.3493 162.752 98.4067 162.658 98.4171C162.581 98.4195 162.505 98.4071 162.433 98.3806L132.086 85.4865L132.029 85.4604C131.836 85.3822 131.607 85.2883 131.607 85.0901C131.428 83.399 130.876 81.7687 129.99 80.3174C129.844 80.0775 129.682 79.8271 129.807 79.5819L151.016 46.7051V46.7051ZM130.506 91.5945L158.954 103.644C159.111 103.717 159.283 103.784 159.351 103.946C159.378 104.043 159.378 104.146 159.351 104.243C159.267 104.661 159.194 105.135 159.194 105.615V106.413C159.194 106.612 158.991 106.695 158.803 106.773L158.746 106.794C154.239 108.719 95.4749 133.777 95.3862 133.777C95.2976 133.777 95.2037 133.777 95.115 133.688C94.9585 133.532 95.115 133.313 95.2558 133.114C95.2807 133.08 95.3051 133.045 95.3289 133.01L118.707 96.8106L118.749 96.748C118.885 96.5289 119.041 96.2838 119.291 96.2838L119.526 96.3203C120.058 96.3933 120.528 96.4611 121.002 96.4611C124.549 96.4611 127.835 94.7346 129.817 91.7823C129.865 91.7035 129.925 91.633 129.995 91.5737C130.136 91.4693 130.344 91.5215 130.506 91.5945V91.5945ZM97.9265 139.504L161.98 112.188C161.98 112.188 162.074 112.188 162.162 112.276C162.512 112.626 162.809 112.86 163.096 113.079L163.237 113.168C163.367 113.241 163.498 113.325 163.508 113.46C163.508 113.512 163.508 113.544 163.498 113.591L158.01 147.297L157.989 147.432C157.953 147.693 157.916 147.991 157.671 147.991C156.208 148.089 154.791 148.543 153.544 149.313C152.296 150.083 151.254 151.145 150.51 152.409L150.483 152.45C150.41 152.57 150.343 152.685 150.223 152.748C150.113 152.8 149.972 152.779 149.858 152.753L98.7767 142.216C98.7245 142.206 97.9838 139.509 97.9265 139.504V139.504Z" fill="url(#paint0_radial_267_110)"/>
<defs>
<radialGradient id="paint0_radial_267_110" cx="0" cy="0" r="1" gradientUnits="userSpaceOnUse" gradientTransform="translate(21.2925 125.178) rotate(90) scale(199.78 230.653)">
<stop stop-color="#20C6B7"/>
<stop offset="1" stop-color="#4D9ABF"/>
</radialGradient>
</defs>
</svg>

        </g>
         
        <g transform="translate(2100, 0)">
          <svg width="256" height="256" viewBox="0 0 256 256" fill="none" xmlns="http://www.w3.org/2000/svg">
<rect width="256" height="256" rx="60" fill="white"/>
<rect width="256" height="256" rx="60" fill="#1D9BF0"/>
<path d="M199.572 91.4114C199.682 92.9983 199.682 94.5851 199.682 96.1866C199.682 144.984 162.534 201.262 94.607 201.262V201.232C74.5411 201.262 54.8921 195.514 38 184.677C40.9177 185.028 43.8501 185.203 46.7898 185.21C63.4186 185.225 79.5722 179.645 92.6545 169.371C76.8519 169.071 62.9945 158.768 58.1536 143.726C63.6892 144.794 69.3931 144.574 74.8263 143.09C57.5978 139.609 45.2029 124.472 45.2029 106.892C45.2029 106.731 45.2029 106.578 45.2029 106.424C50.3364 109.283 56.0841 110.87 61.9634 111.046C45.7367 100.201 40.7349 78.6144 50.5338 61.7368C69.2834 84.8081 96.947 98.8337 126.644 100.318C123.667 87.4919 127.733 74.0513 137.327 65.0348C152.201 51.0531 175.594 51.7697 189.576 66.6363C197.846 65.0056 205.773 61.9708 213.027 57.671C210.271 66.2195 204.501 73.4809 196.793 78.0952C204.113 77.2323 211.265 75.2725 218 72.2816C213.042 79.7112 206.797 86.1829 199.572 91.4114Z" fill="white"/>
</svg>

        </g>
         
        <g transform="translate(0, 300)">
          <svg width="256" height="256" viewBox="0 0 256 256" fill="none" xmlns="http://www.w3.org/2000/svg">
<rect width="256" height="256" rx="60" fill="#242938"/>
<path d="M128 34L223 198.853H33L128 34Z" fill="white"/>
</svg>

        </g>
         
        <g transform="translate(300, 300)">
          <svg xmlns="http://www.w3.org/2000/svg" width="256" height="256" fill="none" viewBox="0 0 256 256"><rect width="256" height="256" fill="#242938" rx="60"/><path fill="#2489CA" d="M33.7158 100.208C33.7158 100.208 28.9814 96.795 34.6627 92.2381L47.8994 80.402C47.8994 80.402 51.6869 76.4172 55.6915 79.8891L177.84 172.368V216.714C177.84 216.714 177.781 223.678 168.844 222.908L33.7158 100.208Z"/><path fill="#1070B3" d="M65.1997 128.792L33.7157 157.415C33.7157 157.415 30.4805 159.822 33.7157 164.123L48.3333 177.418C48.3333 177.418 51.8052 181.147 56.9341 176.905L90.3119 151.596L65.1997 128.792Z"/><path fill="#0877B9" d="M120.474 129.029L178.215 84.9391L177.84 40.83C177.84 40.83 175.374 31.2033 167.148 36.2139L90.312 106.145L120.474 129.029Z"/><path fill="#3C99D4" d="M168.844 222.968C172.198 226.4 176.262 225.276 176.262 225.276L221.259 203.103C227.019 199.177 226.21 194.305 226.21 194.305V61.8982C226.21 56.0788 220.252 54.0667 220.252 54.0667L181.253 35.267C172.731 30 167.148 36.2139 167.148 36.2139C167.148 36.2139 174.328 31.0455 177.84 40.83V215.905C177.84 217.109 177.583 218.292 177.071 219.358C176.045 221.429 173.816 223.362 168.47 222.553L168.844 222.968Z"/></svg>
        </g>
         
        <g transform="translate(600, 300)">
          <svg xmlns="http://www.w3.org/2000/svg" width="256" height="256" fill="none" viewBox="0 0 256 256"><rect width="256" height="256" fill="#0073AA" rx="60"/><path fill="#fff" d="M42.2141 127.994C42.2141 161.949 61.9469 191.293 90.561 205.199L49.641 93.0829C44.8813 103.752 42.2141 115.558 42.2141 127.994Z"/><path fill="#fff" d="M185.908 123.665C185.908 113.064 182.1 105.722 178.834 100.007C174.485 92.9408 170.409 86.9568 170.409 79.8906C170.409 72.005 176.39 64.6646 184.814 64.6646C185.195 64.6646 185.555 64.7119 185.926 64.7332C170.664 50.7509 150.331 42.2141 127.997 42.2141C98.0286 42.2141 71.6621 57.5903 56.3235 80.8798C58.3361 80.9402 60.2328 80.9826 61.8439 80.9826C70.8166 80.9826 84.7058 79.8939 84.7058 79.8939C89.3301 79.6213 89.8753 86.4133 85.2559 86.9601C85.2559 86.9601 80.6087 87.5069 75.4376 87.7779L106.676 180.696L125.449 124.393L112.084 87.7746C107.465 87.5037 103.089 86.9568 103.089 86.9568C98.466 86.6859 99.008 79.6181 103.631 79.8906C103.631 79.8906 117.797 80.9794 126.226 80.9794C135.198 80.9794 149.088 79.8906 149.088 79.8906C153.716 79.6181 154.259 86.41 149.638 86.9568C149.638 86.9568 144.981 87.5037 139.82 87.7746L170.821 179.989L179.377 151.397C183.086 139.531 185.908 131.009 185.908 123.665Z"/><path fill="#fff" d="M129.503 135.498L103.765 210.288C111.449 212.547 119.577 213.783 127.998 213.783C137.987 213.783 147.567 212.056 156.484 208.92C156.254 208.553 156.045 208.163 155.874 207.738L129.503 135.498Z"/><path fill="#fff" d="M203.269 86.8375C203.638 89.5699 203.847 92.5032 203.847 95.6584C203.847 104.363 202.221 114.149 197.324 126.385L171.121 202.144C196.624 187.272 213.778 159.643 213.778 127.996C213.779 113.081 209.97 99.0568 203.269 86.8375Z"/><path fill="#fff" d="M127.998 28C72.8603 28 28 72.857 28 127.994C28 183.138 72.8603 227.993 127.998 227.993C183.133 227.993 228 183.138 228 127.994C227.998 72.857 183.133 28 127.998 28ZM127.998 223.41C75.3887 223.41 32.5851 180.606 32.5851 127.994C32.5851 75.3855 75.3871 32.5851 127.998 32.5851C180.605 32.5851 223.405 75.3855 223.405 127.994C223.405 180.606 180.605 223.41 127.998 223.41Z"/></svg>
        </g>
         
        <g transform="translate(900, 300)">
          <svg xmlns="http://www.w3.org/2000/svg" width="256" height="256" fill="none" viewBox="0 0 256 256"><rect width="256" height="256" fill="#242938" rx="60"/><path fill="url(#paint0_linear_107_922)" d="M79.4225 40.5966L102.985 83.1058L81.346 122.056C80.3101 123.917 79.7664 126.01 79.7664 128.139C79.7664 130.269 80.3101 132.362 81.346 134.222L102.985 173.269L79.4225 215.778C74.9888 213.58 71.307 210.116 68.8433 205.824L31.3353 140.666C29.15 136.862 28 132.551 28 128.163C28 123.776 29.15 119.465 31.3353 115.661L68.8433 50.5026C71.3145 46.2287 74.9955 42.7819 79.4225 40.5966V40.5966Z"/><path fill="url(#paint1_linear_107_922)" d="M81.346 122.104C80.3188 123.959 79.7798 126.044 79.7798 128.163C79.7798 130.283 80.3188 132.368 81.346 134.222L102.985 173.269L79.4225 215.778C74.9889 213.58 71.3071 210.116 68.8434 205.824L31.3353 140.666C28.3539 135.521 45.0402 129.366 81.346 122.153V122.104Z" opacity=".7"/><path fill="url(#paint2_linear_107_922)" d="M81.8269 44.8764L102.985 83.1058L99.4749 89.2128L80.8171 57.6195C75.4313 48.8196 67.2084 53.3878 56.9177 71.1801L58.4565 68.5353L68.8434 50.5026C71.2889 46.2427 74.9349 42.7973 79.3264 40.5966L81.7788 44.8764H81.8269Z" opacity=".5"/><path fill="url(#paint3_linear_107_922)" d="M187.138 50.5027L224.646 115.661C229.118 123.355 229.118 132.972 224.646 140.666L187.138 205.824C184.945 209.623 181.791 212.778 177.992 214.973C174.194 217.168 169.885 218.324 165.499 218.327H127.991L174.635 134.223C175.663 132.368 176.202 130.283 176.202 128.164C176.202 126.044 175.663 123.959 174.635 122.105L127.991 38H165.499C169.885 38.0028 174.194 39.1595 177.992 41.3541C181.791 43.5486 184.945 46.7037 187.138 50.5027V50.5027Z"/><path fill="url(#paint4_linear_107_922)" d="M163.575 218.039L126.548 218.375L171.365 133.838C172.367 131.958 172.891 129.861 172.891 127.731C172.891 125.601 172.367 123.503 171.365 121.624L126.548 38H135.011L182.041 121.239C183.155 123.205 183.737 125.429 183.729 127.689C183.72 129.949 183.122 132.168 181.993 134.126C171.871 151.718 161.821 169.35 151.842 187.022C142.705 203.083 146.649 213.422 163.575 218.039V218.039Z"/><path fill="url(#paint5_linear_107_922)" d="M90.4827 218.327C86.6357 218.327 82.7887 217.413 79.4226 215.778L125.683 132.347C127.125 129.75 127.125 126.577 125.683 123.98L79.4226 40.5967C82.8612 38.894 86.6456 38.0055 90.4827 38H127.991L174.635 122.105C175.663 123.959 176.202 126.044 176.202 128.164C176.202 130.283 175.663 132.368 174.635 134.223L127.991 218.327H90.4827Z"/><path fill="url(#paint6_linear_107_922)" d="M171.365 123.98L123.663 38H127.991L174.635 122.105C175.663 123.959 176.202 126.044 176.202 128.164C176.202 130.283 175.663 132.368 174.635 134.223L127.991 218.327H123.663L171.365 132.347C172.808 129.75 172.808 126.577 171.365 123.98V123.98Z" opacity=".6"/><path fill="url(#paint7_linear_107_922)" d="M125.683 123.98L79.4226 40.5968C80.8652 39.8274 82.5964 39.2503 84.2313 38.7694C94.4258 57.0907 109.477 84.8851 129.433 122.105C130.461 123.959 131 126.044 131 128.164C131 130.283 130.461 132.368 129.433 134.223L83.51 217.365C81.8751 216.885 81.0095 216.548 79.4707 215.827L125.634 132.395C127.077 129.799 127.077 126.625 125.634 124.028L125.683 123.98Z" opacity=".6"/><defs><linearGradient id="paint0_linear_107_922" x1="65.493" x2="-11.309" y1="215.778" y2="92.263" gradientUnits="userSpaceOnUse"><stop stop-color="#EB6F07"/><stop offset="1" stop-color="#FAB743"/></linearGradient><linearGradient id="paint1_linear_107_922" x1="89.307" x2="49.763" y1="200.51" y2="159.839" gradientUnits="userSpaceOnUse"><stop stop-color="#D96504"/><stop offset="1" stop-color="#D96504" stop-opacity="0"/></linearGradient><linearGradient id="paint2_linear_107_922" x1="76.266" x2="97.2" y1="44.826" y2="78.454" gradientUnits="userSpaceOnUse"><stop stop-color="#EB6F07"/><stop offset="1" stop-color="#EB720A" stop-opacity="0"/></linearGradient><linearGradient id="paint3_linear_107_922" x1="177.995" x2="109.226" y1="218.327" y2="75.029" gradientUnits="userSpaceOnUse"><stop stop-color="#EE6F05"/><stop offset="1" stop-color="#FAB743"/></linearGradient><linearGradient id="paint4_linear_107_922" x1="107.564" x2="217.671" y1="218.375" y2="190.429" gradientUnits="userSpaceOnUse"><stop stop-color="#D96504" stop-opacity=".8"/><stop offset=".498" stop-color="#D96504" stop-opacity=".2"/><stop offset="1" stop-color="#D96504" stop-opacity="0"/></linearGradient><linearGradient id="paint5_linear_107_922" x1="127.812" x2="57.639" y1="218.327" y2="76.826" gradientUnits="userSpaceOnUse"><stop stop-color="#FFA95F"/><stop offset="1" stop-color="#FFEBC8"/></linearGradient><linearGradient id="paint6_linear_107_922" x1="127.918" x2="186.439" y1="39.984" y2="49.184" gradientUnits="userSpaceOnUse"><stop stop-color="#fff" stop-opacity=".5"/><stop offset="1" stop-color="#fff" stop-opacity=".1"/></linearGradient><linearGradient id="paint7_linear_107_922" x1="72.357" x2="144.69" y1="224.866" y2="214.211" gradientUnits="userSpaceOnUse"><stop stop-color="#fff" stop-opacity=".5"/><stop offset="1" stop-color="#fff" stop-opacity=".1"/></linearGradient></defs></svg>
        </g>
        
  </svg>
  